# xmcd
#
# Track frame offsets:
#	150
#	12415
#	26765
#	42827
#	56250
#	70167
#	84770
#	96977
#	114970
#	125787
#	139607
#	154867
#
# Disc length: 2262 seconds
#
# Revision: 1
# Processed by: cddbd v1.5.2PL0 Copyright (c) Steve Scherf et al.
# Submitted via: audiograbber 1.83.01
#
DISCID=9608d40c
DTITLE=Sergio Vega - Pase y Pase - Tu Enamorado
DYEAR=1999
DGENRE=Country
TTITLE0=Pase y Pase
TTITLE1=Amigo Fiel
TTITLE2=Siluetas de Cristal
TTITLE3=Tu, Solo Tu
TTITLE4=El Shaka
TTITLE5=Es Mi Gusto
TTITLE6=Un Beso y Una Flor
TTITLE7=Perdoname
TTITLE8=El Embrujado
TTITLE9=En Mi Soledad
TTITLE10=Tarde o Temprano
TTITLE11=Tu Enamorado
EXTD=
EXTT0=
EXTT1=
EXTT2=
EXTT3=
EXTT4=
EXTT5=
EXTT6=
EXTT7=
EXTT8=
EXTT9=
EXTT10=
EXTT11=
PLAYORDER=
